<?xml version="1.0" encoding="UTF-8"?>
<svg id="Layer_1" data-name="Layer 1" xmlns="http://www.w3.org/2000/svg" version="1.1" viewBox="0 0 66 88">
  <defs>
    <style>
      .cls-1 {
        fill: #151515;
      }

      .cls-1, .cls-2 {
        fill-rule: evenodd;
        stroke-width: 0px;
      }

      .cls-2 {
        fill: #4682b4;
      }
    </style>
  </defs>
  <path class="cls-1" d="M0,56V0h66v56h-21l-12,32-12-32H0Z"/>
  <path class="cls-2" d="M23.5,7.9l-2.1.8-.2.2c-1,1.3-1.6,2-1.9,2.5,0,.2,0,.2,0,.4,0,.4.4,1.2,1,2.5.4.8,1.1,2.1,1.3,2.4h0c0,0-.1,0-.1,0-.1,0-1.9-.3-2.1-.4,0,0-.8-.2-1.7-.3-.9-.2-1.6-.3-1.7-.3,0,0-.1,0-.2,0,0,0-.3.4-.7.9-.8,1.1-1.3,1.8-1.4,2.1-.4,1.1-.9,3.5-.8,4.2,0,.3.1.5.3.6.4.4,1.3.9,3.4,1.8,1.4.6,2.1.9,2.2,1.1,0,0,.1.2.2.5.1.4.5,1.8.7,2.6v.5c.1,0,0,.2,0,.2-.5.4-1.9,1.7-2.1,1.9-1.1.8-1.8,1.6-1.8,1.8,0,.5,1,1.9,3.2,4l1,.9.5.3c.9.5,2.9,1.6,4.4,2.5.2,0,.6.3,1,.6s1,.5,1.2.7c.3.1,1.3.7,2.4,1.3,1.7.9,1.9,1,2,1h0s0-.4,0-.4c0-.2-.1-.6-.2-.9,0-.3-.2-.9-.3-1.5-.1-.6-.3-1.2-.3-1.3,0-.1-.2-.8-.3-1.4-.1-.7-.5-2.3-.8-3.6-.3-1.4-.7-3.2-.9-4.1s-.4-1.7-.4-1.9c0-.3-.7-3.4-.9-4.5-.2-1-.3-1.5-.2-2.2,0-1,.2-1.8.5-2.5v-.3c.1,0,.5-.1.5-.1.8-.3,1.3-.4,1.9-.5,1.1-.1,2.3,0,3.6.6,1.3.5,2.5,1.3,3.6,2.4.8.8,1.3,1.5,1.8,2.4.5,1,.8,1.7,1,2.8.2.8.2,1.3.2,2,0,1-.2,1.8-.7,2.7-.3.6-.7,1.1-.9,1.2-.3.1-1.7.2-2.2,0-.3,0-1-.2-1.3-.3h-.2c0,0-.3,0-.3,0-.8.4-1.6.9-2.1,1.3-.5.4-.5.6-.5,1.8,0,2.6.8,8.3,1.2,9.2,0,.1.1.2.3.2.4,0,1.5-.5,2.5-1.2l.3-.2.5-1.6c.3-.9.5-1.8.6-2v-.4c.1,0,.3,0,.3,0,0,0,.2,0,.3,0,.1,0,.1,0,.3.2.2.2.6.6,1.3,1.6,1.4,1.7,2,2.3,2.3,2.4.4,0,1.6-.3,2.7-1,.2-.1.4-.2.4-.2,0,0,3.4-2.5,3.4-2.5s-.4-.9-.9-2c-1.5-3.2-1.5-3.2-1.5-3.3s1.2-2.4,1.3-2.5c0,0,0,0,0,0,0,0,.2,0,.4,0,.3,0,1.7.2,3.7.5.2,0,.5,0,.5,0q0,0,.1-1.1c0-.6,0-1.6.1-2.2,0-1,0-1.1,0-1.1,0,0-.5-.3-1-.6-.5-.3-1.1-.7-1.4-.8-.2-.1-.8-.5-1.2-.7-.5-.3-.9-.5-.9-.5,0,0-.2-.6-.7-2.5l-.2-.7h.1c0-.2.6-.8,1.3-1.5.6-.7,1.2-1.3,1.3-1.4h0c0,0-.5-.9-.5-.9-.3-.4-.9-1.3-1.3-2-.5-.7-.9-1.3-.9-1.3,0,0,0,0-.5,0-.2,0-1.2.3-2,.5l-1.6.4-1.4-1.2-1.4-1.2-.3-2.5c-.2-1.4-.3-2.5-.3-2.5,0,0-4.5-2.1-4.5-2.1s-.6.6-1.2,1.3c-1.1,1.2-1.4,1.5-1.5,1.8,0,.2-.2.6-.3.9,0,0,0,.1,0,.1,0,0-.4,0-.8,0h-.7s-.6-.7-.6-.7c-.3-.4-1-1.1-1.4-1.6-.4-.5-1.1-1.3-1.6-1.7-.4-.5-.8-.8-.8-.8,0,0-1,.4-2.1.8M23.7,8c-1.1.4-1.9.8-1.9.8s0,.1,0,.2c0,.1.2.4.3.7.1.3.3.7.4.9l.4.8c.1.2.5,1,.8,1.7l.6,1.2h0c0,.2-1.2,1.8-1.7,2.5,0,.1-.2.2-.2.2,0,0-.4,0-.9-.2-.5,0-1.2-.2-1.7-.3-1.9-.4-2.7-.5-3.2-.6-.2,0-.5,0-.5,0,0,0,0,.2-.5,2.4-.2,1.3-.4,2.4-.4,2.4,0,0,.7.4,2.5,1.4,0,0,.7.4,1.5.8s1.5.8,1.7.9c.2.1.4.2.4.2,0,0,.2.5.3,1.2.3,1.3.5,1.9.7,2.5v.4c0,0,0,.1,0,.1-.3.2-.4.4-.9.9-.3.2-.5.5-.5.5,0,0-.2.1-.3.3-.2.1-.4.3-.5.4-.1,0-.5.5-.9.8-.4.3-.7.7-.8.7h0c0,0,.4.7.4.7.2.3.6.8.8,1.1.8,1.2,1.1,1.6,1.6,2.3l.5.8h3.1l1,.8c.6.4,1.1.8,1.2.9.2.1.2.2,1.5,2.2.2.4.5.8.6.9.4.6,1.2,1.8,1.5,2.2.6.9.7,1,.6.9,0,0,0-.5-.2-1-.1-.5-.3-1.3-.4-1.7s-.2-1-.3-1.2-.1-.6-.2-.8c0-.2-.2-.8-.3-1.2-.4-1.8-1.3-6.1-1.5-6.9,0-.3-.2-1-.3-1.5-.1-.5-.2-1.1-.3-1.3,0-.1-.2-.7-.3-1.3-.1-.5-.2-1.1-.3-1.3-.3-1.5-.4-1.9-.4-2.6,0-.6,0-1.6.2-2.3.2-.8.5-1.6,1-2.2.7-.9,1.9-1.7,3.1-2.1.8-.2,2.1-.3,3.2,0,1.3.2,2.5.8,3.8,1.6,1.4.9,2.7,2.4,3.6,3.8.8,1.5,1.3,2.9,1.5,4.4,0,.7,0,1.7-.1,2.4-.3,1.4-1.1,2.7-2.1,3.5-.5.4-1.1.7-1.7.9-.7.2-1.3.3-2.1.3s-1.1,0-1.7-.2c-.3,0-.5,0-.5,0,0,0,.2,2.4.5,4.3,0,.5.3,2.9.5,4.8,0,.7.1,1.3.2,1.3,0,0,.3-1,.7-2.2s.7-2.3.7-2.4h0c0-.1.2-.2.2-.2.2,0,.4,0,2.2-.3h1c0-.1,0,0,0,0,0,0,.2.2.4.4.2.2.4.4.5.6,2.1,2.2,3.1,3.3,3.1,3.3,0,0,3.1-2.3,3.1-2.3,0,0-.1-.3-.3-.6-.2-.3-.4-.9-.6-1.4s-.6-1.3-.9-2c-.6-1.2-.6-1.3-.5-1.3,0,0,.3-.7.7-1.3.4-.7.7-1.3.7-1.3,0,0,.4,0,.7,0,.4,0,.8.1.9.1.4,0,2.8.4,2.9.4,0,0,0,0,0-.4,0-.2,0-.7,0-1,0-1.3,0-1.9.1-2.3v-.4s-.5-.3-.5-.3c-.3-.2-.8-.4-1.1-.6-.3-.2-1-.6-1.5-.9-.5-.3-1.1-.6-1.2-.7h-.2c0-.1,0-.5,0-.5-.1-.5-.6-2.1-.7-2.6v-.5c-.1,0,0-.2,0-.2,0,0,.2-.2.2-.2,0,0,.2-.2.5-.5.2-.3.5-.5.5-.5,0,0,.3-.4.7-.8.5-.5.7-.8.7-.8,0,0-.2-.3-.4-.7-.2-.3-.8-1.2-1.3-1.9s-.9-1.3-.9-1.3c0,0,0,0-.2,0,0,0-.6.1-1.2.3-1.9.4-2.3.5-2.5.6h-.2s-.2,0-.2,0c-2.4-2.1-2.7-2.3-2.7-2.4s-.5-4.8-.5-4.8c0,0-1-.5-3.2-1.5-.6-.3-1-.5-1-.5,0,0-.1.2-.2.4,0,.2-.4,1.2-.8,2.1l-.6,1.6h-.2c-.1,0-.9,0-1.7,0h-1.5c0,0-.3-.4-.3-.4-.4-.5-.5-.5-1-1.1-.2-.3-.6-.7-.8-.9-.2-.2-.4-.5-.5-.6s-.3-.3-.4-.4c-.6-.7-1.3-1.4-1.3-1.4,0,0-.9.3-2,.8M33.9,22.2c-.3,0-.6.2-.8.3,0,0-.5.4-1,.9-2.1,1.8-2,1.7-2.2,2.1-.2.4-.2.6-.2,1.1,0,.4,0,.5,0,.7.1.4.2.8.5,1.2.5.9,1.5,1.7,2.4,1.9.3,0,.9,0,1.2,0,.4-.1.4,0,2-1.2.6-.5,1.3-.9,1.4-1,.5-.4.8-.7,1-1.2.6-1.8-.8-4.1-2.9-4.7-.5-.2-1-.2-1.4,0M34,22.4c-.2,0-.5.1-.6.2,0,0,0,0-.1,0s0,0,0,0,0,0,0,0c-.3.2-.6.6-.7,1-.3.9,0,2.1.7,3.1.1.2.8.9.8.9s.3.2.3.2.4.2.6.3c.3.1.8.2,1.2.2.3,0,.7-.1,1-.3.2,0,.6-.5.6-.5s0,0,0-.1c.1-.2.2-.3.3-.5,0-.2,0-.3,0-.7,0-.6,0-.7-.2-1.1-.2-.7-.8-1.4-1.3-1.9,0,0-.2-.2-.2-.2,0,0,0,0,0,0s0,0,0,0c0,0-.6-.3-.8-.4,0,0-.1,0-.1,0s0,0-.1,0c0,0-.1,0-.2,0-.2,0-.8,0-1,0"/>
</svg>