<?xml version="1.0" encoding="UTF-8"?>
<svg id="Layer_2" data-name="Layer 2" xmlns="http://www.w3.org/2000/svg" viewBox="0 0 963.78 329.29">
  <defs>
    <style>
      .cls-1 {
        fill: none;
        stroke: #4a5eaa;
        stroke-width: 1px;
      }
    </style>
  </defs>
  <g id="Layer_1-2" data-name="Layer 1">
    <g>
      <path class="cls-1" d="M292.53,137.71l-7.89-10.7c-1.25-1.69-3.17-2.89-5.35-3.51-2.74-.78-5.89-.64-8.61.59l-11.33,5.12c-5.12-4.42-11.05-8.35-17.69-11.62l4.47-9.61c1.93-4.15-.8-8.74-6.11-10.25l-14.84-4.22c-5.3-1.51-11.16.63-13.1,4.78l-4.47,9.61c-7.77-.83-15.54-.81-23.09,0l-4.47-9.61c-1.07-2.31-3.37-4-6.11-4.78-2.17-.62-4.63-.67-6.98,0l-14.84,4.23c-5.31,1.51-8.04,6.1-6.1,10.25l4.48,9.62c-6.5,3.2-12.47,7.09-17.7,11.6l-11.32-5.11c-.53-.24-1.07-.44-1.62-.59-4.57-1.3-9.81.11-12.33,3.52l-7.89,10.7c-2.82,3.82-1.15,8.71,3.74,10.92l11.34,5.12c-2.42,5.89-3.74,11.87-4.03,17.79l-12.87,1.78c-5.55.77-9.26,4.91-8.28,9.26l2.74,12.17c.66,2.92,3.26,5.18,6.58,6.13,1.62.46,3.43.61,5.25.36l12.89-1.78c2.92,5.58,6.8,10.85,11.54,15.65l-8.41,7.84c-3.63,3.38-3.07,8.42,1.26,11.26l12.1,7.94c.94.62,1.98,1.08,3.07,1.4,3.92,1.12,8.49.27,11.32-2.38l8.41-7.85c3.37,1.39,6.9,2.61,10.58,3.66,3.68,1.05,7.39,1.88,11.11,2.52v10.24c0,3.45,2.8,6.4,6.73,7.51,1.09.31,2.27.48,3.5.48h15.79c5.64,0,10.22-3.58,10.21-8v-10.23c7.57-1.29,14.87-3.37,21.69-6.18l8.42,7.85c1.19,1.11,2.69,1.91,4.32,2.37,3.32.95,7.17.52,10.07-1.38l12.1-7.94c4.32-2.84,4.89-7.88,1.26-11.27l-8.4-7.83c4.64-4.69,8.53-9.93,11.52-15.66l12.89,1.78c5.56.76,10.86-2.14,11.84-6.49l2.74-12.17c.87-3.88-1.98-7.6-6.56-8.9-.55-.16-1.13-.28-1.73-.36l-12.87-1.78c-.31-6.09-1.68-12.07-4.03-17.79l11.34-5.12c4.88-2.21,6.56-7.1,3.74-10.92ZM246.8,188.56c-10.17,21.85-41.16,33.16-69.08,25.21-27.93-7.95-42.38-32.2-32.21-54.05,10.16-21.85,41.15-33.16,69.08-25.21,27.93,7.95,42.38,32.2,32.22,54.05Z"/>
      <path class="cls-1" d="M963.78,164.84h-358.35l-19.03-26.74c-1.87-2.53-4.74-4.32-7.99-5.25-4.1-1.16-8.8-.96-12.86.88l-16.92,7.64c-7.65-6.61-16.5-12.47-26.43-17.35l6.68-14.36c2.88-6.2-1.2-13.05-9.12-15.31l-22.17-6.31c-7.92-2.26-16.68.94-19.56,7.14l-6.68,14.36c-11.61-1.25-23.21-1.21-34.5,0l-6.68-14.36c-1.6-3.45-5.03-5.97-9.13-7.14-3.25-.93-6.92-1-10.43,0l-22.16,6.31c-7.92,2.26-12.01,9.11-9.12,15.31l6.69,14.38c-9.7,4.78-18.62,10.59-26.44,17.33l-16.91-7.64c-.79-.36-1.59-.65-2.43-.89-6.83-1.94-14.66.16-18.42,5.26l-11.79,15.98c-4.22,5.71-1.72,13.02,5.58,16.31l16.94,7.65c-3.62,8.8-5.58,17.73-6.02,26.57l-19.23,2.65c-8.29,1.15-13.84,7.34-12.38,13.84l4.09,18.17c.98,4.36,4.87,7.75,9.82,9.16,2.43.69,5.12.91,7.86.53l19.25-2.66c4.37,8.34,10.16,16.21,17.24,23.38l-12.56,11.71c-5.42,5.06-4.58,12.59,1.88,16.82l18.07,11.87c1.41.92,2.96,1.61,4.59,2.08,5.85,1.66,12.67.4,16.91-3.55l12.56-11.71c5.04,2.07,10.31,3.9,15.81,5.47,5.5,1.57,11.04,2.81,16.6,3.76v21.15s-427.05,0-427.05,0"/>
      <path class="cls-1" d="M373.63,30.94l-6.61-7.38c-1.05-1.17-2.54-1.94-4.17-2.28-2.06-.43-4.33-.17-6.2.86l-7.81,4.28c-4.08-2.96-8.71-5.51-13.79-7.55l2.46-7.2c1.06-3.11-1.29-6.3-5.27-7.13l-11.12-2.33c-3.97-.83-8.06,1.01-9.12,4.12l-2.46,7.21c-5.71-.22-11.35.19-16.77,1.16l-4.04-6.76c-.97-1.62-2.78-2.74-4.83-3.16-1.64-.34-3.42-.25-5.07.35l-10.43,3.81c-3.73,1.36-5.34,4.83-3.6,7.75l4.04,6.76c-4.45,2.65-8.47,5.78-11.9,9.31l-8.63-3.15c-.41-.15-.82-.26-1.23-.35-3.43-.72-7.12.57-8.67,3.17l-4.86,8.17c-1.74,2.92-.12,6.38,3.61,7.74l8.66,3.15c-1.28,4.4-1.74,8.81-1.47,13.12l-9.2,1.93c-3.97.84-6.33,4.03-5.26,7.14l2.98,8.7c.72,2.09,2.79,3.6,5.27,4.12,1.22.26,2.54.27,3.85,0l9.22-1.94c2.58,3.91,5.83,7.54,9.66,10.79l-5.46,6.11c-2.36,2.64-1.54,6.27,1.83,8.12l9.43,5.16c.74.4,1.53.68,2.35.86,2.94.61,6.19-.23,8.03-2.29l5.46-6.11c2.56.84,5.23,1.55,7.99,2.13,2.76.58,5.52.99,8.27,1.27l.84,7.43c.28,2.51,2.56,4.51,5.5,5.12.82.17,1.69.23,2.58.17l11.47-.79c4.1-.28,7.13-3.11,6.76-6.32l-.83-7.43c5.39-1.31,10.52-3.19,15.25-5.57l6.75,5.28c.96.75,2.11,1.25,3.33,1.51,2.49.52,5.25.02,7.2-1.51l8.13-6.37c2.91-2.28,2.91-5.97,0-8.24l-6.74-5.27c2.98-3.63,5.39-7.63,7.09-11.94l9.51.65c4.1.28,7.71-2.1,8.06-5.3l1-8.97c.32-2.86-2.06-5.42-5.49-6.13-.41-.09-.85-.15-1.29-.18l-9.49-.65c-.72-4.41-2.21-8.68-4.37-12.72l7.81-4.29c3.37-1.85,4.18-5.48,1.82-8.12ZM344.58,70.15c-5.6,16.38-27.18,26.14-48.11,21.76-20.93-4.38-33.41-21.26-27.81-37.64,5.59-16.38,27.18-26.14,48.11-21.76,20.93,4.38,33.41,21.26,27.81,37.64Z"/>
    </g>
  </g>
</svg>