<?xml version="1.0" encoding="utf-8"?>
<!-- Generator: Adobe Illustrator 28.1.0, SVG Export Plug-In . SVG Version: 6.00 Build 0)  -->
<svg version="1.1" id="Layer_1" xmlns="http://www.w3.org/2000/svg" xmlns:xlink="http://www.w3.org/1999/xlink" x="0px" y="0px"
	 viewBox="0 0 1600 1600" style="enable-background:new 0 0 1600 1600;" xml:space="preserve">
<style type="text/css">
	.st0{fill-rule:evenodd;clip-rule:evenodd;fill:#FFFFFF;}
	.st1{fill-rule:evenodd;clip-rule:evenodd;fill:#B22222;}
	.st2{fill-rule:evenodd;clip-rule:evenodd;fill:#4682B4;}
</style>
<path class="st0" d="M356.4,29.1l-70.1,28l-6.3,7.7c-35.2,42.8-54.8,69.7-62.6,85.7c-3,6.1-3.4,7.7-2.9,12.2
	c1.4,12.4,12.9,40.5,34.5,84.2c13.4,27.1,37.3,72.7,42.3,81.1l2.1,3.4l-4.4-0.7c-4.6-0.7-62.9-11.9-70.9-13.6
	c-2.5-0.5-28.1-5.5-57-11c-28.9-5.5-54.5-10.5-56.9-10.9c-3.3-0.7-4.7-0.6-5.5,0.4c-0.6,0.7-11.4,15-23.9,31.7
	C46.2,364.8,31.3,387,27.1,398C12.3,436.7-2.4,516.8,0.9,541c1.4,10.6,3.8,15.8,9.8,21.6c14.3,13.8,44.4,29.7,115.3,61.1
	c48.6,21.5,70.7,32.2,74.2,36c1.8,1.9,4,7.2,6.8,15.9c4.5,14.2,16.6,61.7,22.6,89.4l3.8,17.4l-6,5.6c-16,15-64,58.4-71,64.1
	c-35.3,29-60.4,54.3-62,62.6c-3.3,17.5,33,64.7,106.1,138.1l32,32.1l16,9.5c29.7,17.6,96.5,55.2,149.5,84.3
	c5.2,2.9,20.8,11.4,34.5,19s32,17.6,40.5,22.3c8.5,4.7,44.2,24.2,79.3,43.3c58.8,32.1,64,34.7,66.6,33.8l2.9-1l-2.9-14.2
	c-1.6-7.8-4.5-21.4-6.3-30.2c-1.9-8.8-6.8-32.4-11-52.5c-4.2-20.1-8.5-40.6-9.5-45.5c-1.1-4.9-5.8-27.2-10.4-49.5
	c-4.6-22.3-16.4-78.3-26-124.5c-9.7-46.2-22.8-108.8-29.1-139s-12.4-59-13.4-64c-2.3-10.4-24.7-117.7-31.9-152.5
	c-6.7-32.6-8.5-49.9-7.8-76.5c0.9-34,5.9-60.1,16.4-86l4.8-11.8l11-4.4c26.6-10.7,43.4-15.3,62.4-17.3c37.9-3.8,76.3,2.5,122.1,20.2
	c45.1,17.4,84.4,44,122.6,82.9c26.6,27.1,44.7,51.8,61,83.3c17,32.8,25.5,57,33.3,95.1c5.5,26.9,7.4,45.3,6.8,66.9
	c-0.9,34.2-7.8,61.6-22.7,91c-10.9,21.4-23.4,38.1-31.3,41.8c-8.8,4-55.6,5.8-75.2,2.9c-11.4-1.7-34.7-6.6-44.3-9.2l-7.3-2
	l-10.7,5.1c-28,13.3-55.2,31-69.4,45c-15.3,15.1-16.3,18.9-16.2,62.5c0.3,89.9,25.3,283.8,40.4,313.5c2.4,4.7,4.5,6,10,6
	c12.2,0,49.2-18.1,85-41.4l9.5-6.2l15.9-55.9c8.7-30.8,17.7-62.1,19.9-69.6l4-13.6l5.5-1.1c3-0.6,7.6-1.1,10.1-1.1
	c4.3,0,4.9,0.4,10.6,6.3c5.6,5.8,19,21.9,44.5,53.3c46.2,56.9,67.9,79.3,78.6,81.1c14.4,2.3,52.6-11.6,92-33.7c6.9-3.9,12.8-7,13-7
	c0.8,0,115.4-86.1,115.4-86.7c0-0.3-14.3-31.6-31.9-69.7c-49.8-107.9-51.1-110.9-51.1-111.7c0-0.9,40.4-81,42.7-84.7
	c0.9-1.4,2.1-2.1,3.1-1.8c0.9,0.3,6.9,1.2,13.2,2c9.6,1.3,58.3,7.9,122.9,16.6c7.9,1.1,15.3,2,16.6,2c2.2,0,2.2,0,4-39.2
	c1-21.6,2.6-55.9,3.5-76.2c1.6-33.8,1.6-37.1,0.1-38.6c-0.9-0.9-16-10.3-33.6-20.9c-17.6-10.6-38.1-23-45.5-27.5
	c-7.4-4.5-26.3-16-42-25.5c-15.7-9.5-28.7-17.4-28.8-17.6c-0.3-0.3-5.6-19.1-24.2-86.7l-6.3-22.7l3.8-4.3
	c2.1-2.4,21.6-23.8,43.4-47.7c21.8-23.9,40.8-44.9,42.3-46.6l2.7-3.2l-17.2-26.1c-9.5-14.4-29.8-45.3-45.2-68.7
	c-15.4-23.4-28.7-43.4-29.5-44.4c-1.5-1.8-2-1.7-16,1.5c-8,1.8-38.7,8.8-68.2,15.5l-53.7,12.2l-46.3-40l-46.3-40l-9.3-84.4
	c-5.1-46.4-9.4-84.5-9.6-84.6C884,93.6,732.9,23,732.1,23c-0.9,0-19.4,19.6-41.7,44c-36.6,40.2-45.5,51.1-50.8,62.4
	c-3.1,6.5-8.1,22.2-10.3,32.1c-0.7,3.1-1.3,4-2.8,3.8c-1-0.1-13.1-0.5-26.7-0.9l-24.8-0.7l-20.7-23.1
	c-11.4-12.7-32.9-36.6-47.7-53.2s-38.4-42.7-52.3-58.2C440.2,13.7,428.3,1,427.7,1C427,1.1,394.9,13.7,356.4,29.1 M360.2,34.1
	c-35.9,14.3-65.2,26.5-65.2,27c0,0.6,1.4,4,3.1,7.7c1.7,3.7,6.9,15,11.6,25.2c4.7,10.2,11.1,24.1,14.3,31
	c3.2,6.9,8.9,19.2,12.8,27.5s15.6,33.8,26.2,56.8l19.2,41.8l-2.5,3.7c-2.1,3.2-41.5,57.5-57.9,80c-2.9,4-5.8,7.2-6.5,7.2
	c-0.6,0-13.7-2.5-29-5.5c-15.3-3-40.9-8-56.8-11.1c-63.2-12.2-91.7-17.7-106.2-20.5c-8.3-1.6-16-3-17-2.9c-1.7,0-3.1,7.7-15.3,80.8
	c-7.4,44.4-13.6,81.2-13.8,81.8c-0.3,0.9,22.4,13.5,83.2,46.5c2.8,1.5,25,13.6,49.5,27s50.4,27.4,57.5,31.2
	c7.1,3.8,13.6,7.5,14.3,8.1c0.7,0.7,5.8,18.5,11.3,39.6c11.2,43,17.1,65.5,22,83.9l3.3,12.4l-4.9,4.5c-8.6,8-14.5,13.4-31.9,29.2
	c-9.4,8.5-17.5,15.9-18.1,16.5c-0.6,0.6-5.6,5.1-11,10c-5.4,4.9-12.8,11.7-16.4,15.1c-3.6,3.3-17.1,15.7-30,27.4
	c-12.9,11.7-24.6,22.3-25.8,23.6l-2.3,2.2l14.1,20.9c7.8,11.5,19.4,28.5,25.7,37.9c27.3,39.9,37.2,54.5,54.3,79.8l18.1,26.8h52.5
	h52.5l35.2,25.6c19.4,14.1,37.4,27.3,40.1,29.4c5.1,3.9,6.6,6.1,51.3,76.5c8,12.7,16.9,26.6,19.8,31c13.6,21.1,40.2,62.6,49,76.5
	c18.8,29.6,22.4,35,21,30.8c-0.2-0.7-3.3-15.4-6.9-32.8c-3.6-17.3-9-43.4-12.1-58s-6.9-32.8-8.5-40.5s-4.3-20.5-6-28.5
	c-1.7-8-5.5-26.2-8.5-40.5C556.6,1014.4,526,868.2,520,840c-2.2-10.2-7.1-33.8-11-52.5c-3.9-18.7-7.9-38-9-43c-1.1-5-5.1-24.3-9-43
	c-3.9-18.7-7.9-38-9-43c-11.1-51.4-13.1-63.5-15-89.4c-1.6-22.1,1.2-53.8,6.9-78.3c6.4-27.3,18.3-53.2,34.8-75.6
	c22.9-31.2,63-58.3,104.3-70.7c28-8.4,69.4-9.3,107.5-2.4C763.6,350,806.2,368,848,396c45.8,30.7,91.5,80.4,120.2,131
	c28.3,49.8,44.9,99.4,49.9,149.4c2.2,22.3,0.4,58-4.1,80.3c-9.3,46.2-35.8,91.3-71,120.7c-15.4,12.9-35.7,24.1-57.5,31.5
	c-22.6,7.7-43.1,11-69.3,11c-20.2,0-37.5-2-58.6-6.6c-8.7-1.9-16.1-3.4-16.5-3.2c-0.6,0.2,8.2,83.2,15.3,145.3
	c1.8,15.9,11.1,100.7,18.2,165.5c2.6,23.9,5,43.8,5.4,44.2c0.3,0.4,10.5-33.8,22.5-76s22.5-78.8,23.2-81.4l1.4-4.6l5.7-0.7
	c5.8-0.7,13.8-1.8,73.4-10.1l33.7-4.7l2.3,2.5c1.3,1.4,7.1,7.6,12.9,13.9c5.8,6.3,13.9,15,17.9,19.4
	c70.1,76.1,103.4,111.6,104.4,111.3c2.2-0.6,105.5-78.3,105.6-79.4c0-0.6-4.3-10.5-9.6-22c-5.3-11.5-14.9-32.3-21.4-46.4
	s-20.6-44.7-31.4-68.3c-18.9-41-19.7-42.9-18.3-45.5c0.8-1.5,11.2-22.2,23.1-46c11.9-23.8,22.4-43.6,23.2-43.9
	c0.8-0.3,11.9,0.9,24.7,2.7c12.8,1.8,26.2,3.6,29.7,4c14.8,1.8,95.7,13,97.6,13.4c2.1,0.5,2.1,0.1,2.8-14.7
	c0.4-8.4,1.1-24.5,1.6-35.7c2-43.2,2.9-64,3.5-78.5l0.6-15l-16.8-10.1c-9.3-5.6-25.4-15.3-35.8-21.6c-10.4-6.3-33.8-20.5-52-31.5
	c-18.2-11-35.9-21.7-39.4-23.9l-6.4-3.9l-3.2-11.5c-5-17.8-19.9-71.8-24.5-88.8l-4.2-15.4l5.3-5.6c2.9-3.1,5.6-5.8,5.8-6.1
	c0.3-0.3,7.2-8,15.5-17c8.2-9.1,15.2-16.7,15.5-17c0.3-0.3,11.5-12.5,24.8-27.2c16-17.6,24-27.2,23.5-28
	c-0.4-0.7-7.1-10.9-14.9-22.8c-7.8-11.8-26.9-40.9-42.4-64.5s-28.8-43.6-29.4-44.2c-0.9-1-2.4-0.9-7.2,0.2c-3.3,0.8-21,4.9-39.5,9
	c-62.4,14.1-78.5,17.7-84,19.1l-5.5,1.4l-5.5-4.8c-81.8-70.3-92-79.4-92-82.2c0-3.7-17.9-164.2-18.4-164.6
	C878.3,98,846,82.8,770.8,47.6c-18.5-8.7-34.2-15.6-34.9-15.4c-0.6,0.2-3.6,7.1-6.5,15.4c-3,8.2-14.3,39.9-25.3,70.5l-19.9,55.5
	l-6.3,0c-3.5,0-28.7-0.9-56.1-2l-49.8-2L560.7,157c-14.4-16.1-15.5-17.4-33.3-37c-8.2-9.1-20.5-22.8-27.4-30.5
	c-6.8-7.7-14.7-16.5-17.5-19.5s-8.4-9.3-12.6-14c-21-23.6-43.3-48-43.9-48C425.8,8.1,396.1,19.8,360.2,34.1 M704,517.9
	c-9.4,2-19.3,6.1-26.7,11.2c-2.6,1.8-17.9,15-33.8,29.4c-69.3,62.5-66.4,59.6-73,73.3c-6.3,12.9-7.8,20.5-7.9,39.2
	c-0.1,12.8,0.4,18.3,1.8,24.5c3.4,14.6,7.9,26.2,15.5,40c17.6,31.9,49.9,57.8,82,65.7c11.1,2.7,30.6,3,39.7,0.5
	c14.1-3.8,12.8-3,65.9-41.7c21.5-15.6,43.3-31.4,48.6-35.2c17.2-12.2,26.3-24,32-41.7c19.6-61-27.9-141.2-96.1-162.1
	C734.9,515.8,719.1,514.7,704,517.9 M706.5,523.4c-7.8,1.6-16.3,4.5-19.6,6.8c-1.5,1-3.1,1.8-3.8,1.8c-0.6,0-1.1,0.4-1.1,0.8
	c0,0.4-1.3,1.6-2.9,2.5c-9.3,5.5-19.8,20.1-24.4,33.9c-10.6,31.7-2.3,70.4,22.4,105c4.2,5.9,27.1,29.8,28.5,29.8
	c0.6,0,9.3,5.8,10.5,7c1.2,1.2,13.4,7.5,21.3,10.9c9.2,4.1,28.2,8,38.7,8.1c10.3,0,25.1-3.9,35.3-9.3c5.2-2.8,20.7-16.3,20.7-18.1
	c0-0.4,1.3-2.6,2.8-4.9c3.6-5.3,5.9-10.3,8.5-18.6c1.9-5.8,2.1-9,2.1-25.1c0-19.3-0.8-24.6-5.5-38.3c-8-23.4-25.3-48.4-43.9-63.7
	c-3-2.5-6.4-5.3-7.4-6.2c-1.1-1-2.4-1.8-2.8-1.8c-0.5,0-1.8-0.9-3.1-2c-2-1.9-19.6-10.9-25.7-13.3c-1.4-0.5-3.4-1.3-4.5-1.7
	s-3.3-1.1-5-1.4c-1.7-0.3-5-1.1-7.5-1.7C733.1,522.3,713.3,522,706.5,523.4"/>
<path class="st1" d="M706.5,523.4c-7.8,1.6-16.3,4.5-19.6,6.8c-1.5,1-3.1,1.8-3.8,1.8c-0.6,0-1.1,0.4-1.1,0.8c0,0.4-1.3,1.6-2.9,2.5
	c-9.3,5.5-19.8,20.1-24.4,33.9c-10.6,31.7-2.3,70.4,22.4,105c4.2,5.9,27.1,29.8,28.5,29.8c0.6,0,9.3,5.8,10.5,7
	c1.2,1.2,13.4,7.5,21.3,10.9c9.2,4.1,28.2,8,38.7,8.1c10.3,0,25.1-3.9,35.3-9.3c5.2-2.8,20.7-16.3,20.7-18.1c0-0.4,1.3-2.6,2.8-4.9
	c3.6-5.3,5.9-10.3,8.5-18.6c1.9-5.8,2.1-9,2.1-25.1c0-19.3-0.8-24.6-5.5-38.3c-8-23.4-25.3-48.4-43.9-63.7c-3-2.5-6.4-5.3-7.4-6.2
	c-1.1-1-2.4-1.8-2.8-1.8c-0.5,0-1.8-0.9-3.1-2c-2-1.9-19.6-10.9-25.7-13.3c-1.4-0.5-3.4-1.3-4.5-1.7s-3.3-1.1-5-1.4
	c-1.7-0.3-5-1.1-7.5-1.7C733.1,522.3,713.3,522,706.5,523.4"/>
<path class="st2" d="M360.2,34.1c-35.9,14.3-65.2,26.5-65.2,27c0,0.6,1.4,4,3.1,7.7c1.7,3.7,6.9,15,11.6,25.2
	c4.7,10.2,11.1,24.1,14.3,31c3.2,6.9,8.9,19.2,12.8,27.5s15.6,33.8,26.2,56.8l19.2,41.8l-2.5,3.7c-2.1,3.2-41.5,57.5-57.9,80
	c-2.9,4-5.8,7.2-6.5,7.2c-0.6,0-13.7-2.5-29-5.5c-15.3-3-40.9-8-56.8-11.1c-63.2-12.2-91.7-17.7-106.2-20.5c-8.3-1.6-16-3-17-2.9
	c-1.7,0-3.1,7.7-15.3,80.8c-7.4,44.4-13.6,81.2-13.8,81.8c-0.3,0.9,22.4,13.5,83.2,46.5c2.8,1.5,25,13.6,49.5,27
	s50.4,27.4,57.5,31.2c7.1,3.8,13.6,7.5,14.3,8.1c0.7,0.7,5.8,18.5,11.3,39.6c11.2,43,17.1,65.5,22,83.9l3.3,12.4l-4.9,4.5
	c-8.6,8-14.5,13.4-31.9,29.2c-9.4,8.5-17.5,15.9-18.1,16.5c-0.6,0.6-5.6,5.1-11,10c-5.4,4.9-12.8,11.7-16.4,15.1
	c-3.6,3.3-17.1,15.7-30,27.4c-12.9,11.7-24.6,22.3-25.8,23.6l-2.3,2.2l14.1,20.9c7.8,11.5,19.4,28.5,25.7,37.9
	c27.3,39.9,37.2,54.5,54.3,79.8l18.1,26.8h52.5h52.5l35.2,25.6c19.4,14.1,37.4,27.3,40.1,29.4c5.1,3.9,6.6,6.1,51.3,76.5
	c8,12.7,16.9,26.6,19.8,31c13.6,21.1,40.2,62.6,49,76.5c18.8,29.6,22.4,35,21,30.8c-0.2-0.7-3.3-15.4-6.9-32.8
	c-3.6-17.3-9-43.4-12.1-58s-6.9-32.8-8.5-40.5s-4.3-20.5-6-28.5c-1.7-8-5.5-26.2-8.5-40.5C556.6,1014.4,526,868.2,520,840
	c-2.2-10.2-7.1-33.8-11-52.5c-3.9-18.7-7.9-38-9-43c-1.1-5-5.1-24.3-9-43c-3.9-18.7-7.9-38-9-43c-11.1-51.4-13.1-63.5-15-89.4
	c-1.6-22.1,1.2-53.8,6.9-78.3c6.4-27.3,18.3-53.2,34.8-75.6c22.9-31.2,63-58.3,104.3-70.7c28-8.4,69.4-9.3,107.5-2.4
	C763.6,350,806.2,368,848,396c45.8,30.7,91.5,80.4,120.2,131c28.3,49.8,44.9,99.4,49.9,149.4c2.2,22.3,0.4,58-4.1,80.3
	c-9.3,46.2-35.8,91.3-71,120.7c-15.4,12.9-35.7,24.1-57.5,31.5c-22.6,7.7-43.1,11-69.3,11c-20.2,0-37.5-2-58.6-6.6
	c-8.7-1.9-16.1-3.4-16.5-3.2c-0.6,0.2,8.2,83.2,15.3,145.3c1.8,15.9,11.1,100.7,18.2,165.5c2.6,23.9,5,43.8,5.4,44.2
	c0.3,0.4,10.5-33.8,22.5-76s22.5-78.8,23.2-81.4l1.4-4.6l5.7-0.7c5.8-0.7,13.8-1.8,73.4-10.1l33.7-4.7l2.3,2.5
	c1.3,1.4,7.1,7.6,12.9,13.9c5.8,6.3,13.9,15,17.9,19.4c70.1,76.1,103.4,111.6,104.4,111.3c2.2-0.6,105.5-78.3,105.6-79.4
	c0-0.6-4.3-10.5-9.6-22c-5.3-11.5-14.9-32.3-21.4-46.4s-20.6-44.7-31.4-68.3c-18.9-41-19.7-42.9-18.3-45.5
	c0.8-1.5,11.2-22.2,23.1-46c11.9-23.8,22.4-43.6,23.2-43.9c0.8-0.3,11.9,0.9,24.7,2.7c12.8,1.8,26.2,3.6,29.7,4
	c14.8,1.8,95.7,13,97.6,13.4c2.1,0.5,2.1,0.1,2.8-14.7c0.4-8.4,1.1-24.5,1.6-35.7c2-43.2,2.9-64,3.5-78.5l0.6-15l-16.8-10.1
	c-9.3-5.6-25.4-15.3-35.8-21.6c-10.4-6.3-33.8-20.5-52-31.5c-18.2-11-35.9-21.7-39.4-23.9l-6.4-3.9l-3.2-11.5
	c-5-17.8-19.9-71.8-24.5-88.8l-4.2-15.4l5.3-5.6c2.9-3.1,5.6-5.8,5.8-6.1c0.3-0.3,7.2-8,15.5-17c8.2-9.1,15.2-16.7,15.5-17
	c0.3-0.3,11.5-12.5,24.8-27.2c16-17.6,24-27.2,23.5-28c-0.4-0.7-7.1-10.9-14.9-22.8c-7.8-11.8-26.9-40.9-42.4-64.5
	s-28.8-43.6-29.4-44.2c-0.9-1-2.4-0.9-7.2,0.2c-3.3,0.8-21,4.9-39.5,9c-62.4,14.1-78.5,17.7-84,19.1l-5.5,1.4l-5.5-4.8
	c-81.8-70.3-92-79.4-92-82.2c0-3.7-17.9-164.2-18.4-164.6C878.3,98,846,82.8,770.8,47.6c-18.5-8.7-34.2-15.6-34.9-15.4
	c-0.6,0.2-3.6,7.1-6.5,15.4c-3,8.2-14.3,39.9-25.3,70.5l-19.9,55.5l-6.3,0c-3.5,0-28.7-0.9-56.1-2l-49.8-2L560.7,157
	c-14.4-16.1-15.5-17.4-33.3-37c-8.2-9.1-20.5-22.8-27.4-30.5c-6.8-7.7-14.7-16.5-17.5-19.5s-8.4-9.3-12.6-14
	c-21-23.6-43.3-48-43.9-48C425.8,8.1,396.1,19.8,360.2,34.1 M571.5,159.7l4,4.2l8.5-0.2l8.5-0.2l-8.5-0.3c-8.2-0.3-8.6-0.5-12.5-4
	l-4-3.7L571.5,159.7 M581.8,427.7c4.6,0.2,11.8,0.2,16,0c4.2-0.2,0.5-0.3-8.3-0.3S577.2,427.6,581.8,427.7 M1112.9,965.1
	c-2.8,5.6-4.9,10.3-4.7,10.5c0.2,0.2,2.7-4.4,5.6-10.1c2.9-5.8,5-10.5,4.7-10.5C1118.2,955,1115.7,959.5,1112.9,965.1 M201.5,1055
	c12.1,12.1,22.2,22,22.5,22c0.3,0-9.4-9.9-21.5-22s-22.2-22-22.5-22C179.7,1033,189.4,1042.9,201.5,1055"/>
</svg>
