<svg xmlns="http://www.w3.org/2000/svg" width="1600" height="1600" viewBox="0 0 1600 1600" version="1.1"><path d="M 356.370 29.075 L 286.239 57.056 279.897 64.778 C 244.712 107.614, 225.048 134.527, 217.300 150.450 C 214.318 156.577, 213.943 158.175, 214.432 162.651 C 215.790 175.090, 227.284 203.104, 248.976 246.847 C 262.408 273.933, 286.243 319.594, 291.289 327.906 L 293.356 331.313 288.928 330.623 C 284.373 329.914, 226.045 318.709, 218 316.999 C 215.525 316.472, 189.875 311.516, 161 305.985 C 132.125 300.453, 106.499 295.530, 104.052 295.043 C 100.737 294.384, 99.337 294.489, 98.552 295.456 C 97.974 296.170, 87.197 310.422, 74.605 327.127 C 46.210 364.798, 31.307 387.037, 27.132 397.969 C 12.338 436.711, -2.373 516.823, 0.875 540.957 C 2.295 551.514, 4.675 556.757, 10.665 562.532 C 24.933 576.287, 55.069 592.261, 126 623.668 C 174.640 645.204, 196.683 655.896, 200.157 659.638 C 201.930 661.549, 204.189 666.820, 206.952 675.500 C 211.464 689.671, 223.506 737.239, 229.583 764.895 L 233.405 782.290 227.431 787.895 C 211.447 802.891, 163.384 846.251, 156.400 851.976 C 121.080 880.927, 95.977 906.276, 94.423 914.561 C 91.142 932.049, 127.380 979.228, 200.488 1052.649 L 232.500 1084.797 248.500 1094.248 C 278.236 1111.812, 344.952 1149.419, 398 1178.520 C 403.225 1181.387, 418.750 1189.923, 432.500 1197.490 C 446.250 1205.057, 464.475 1215.086, 473 1219.777 C 481.525 1224.468, 517.195 1243.961, 552.268 1263.095 C 611.087 1295.184, 616.257 1297.806, 618.892 1296.888 L 621.749 1295.892 618.818 1281.696 C 617.206 1273.888, 614.356 1260.300, 612.486 1251.500 C 610.615 1242.700, 605.670 1219.075, 601.497 1199 C 597.325 1178.925, 593.027 1158.450, 591.947 1153.500 C 590.867 1148.550, 586.183 1126.275, 581.539 1104 C 576.894 1081.725, 565.176 1025.700, 555.500 979.500 C 545.823 933.300, 532.741 870.750, 526.429 840.500 C 520.117 810.250, 514.067 781.450, 512.984 776.500 C 510.713 766.114, 488.262 658.797, 481.082 624 C 474.362 591.440, 472.597 574.055, 473.314 547.519 C 474.233 513.491, 479.204 487.443, 489.731 461.480 L 494.500 449.719 505.500 445.304 C 532.088 434.632, 548.904 429.980, 567.856 428.053 C 605.714 424.204, 644.185 430.558, 690 448.228 C 735.099 465.622, 774.416 492.219, 812.607 531.171 C 839.221 558.315, 857.287 582.986, 873.638 614.515 C 890.660 647.340, 899.127 671.533, 906.913 709.598 C 912.414 736.491, 914.280 754.937, 913.682 776.500 C 912.734 810.702, 905.903 838.139, 891.026 867.500 C 880.163 888.938, 867.657 905.634, 859.735 909.272 C 850.940 913.312, 804.171 915.101, 784.500 912.150 C 773.143 910.446, 749.753 905.564, 740.217 902.906 L 732.934 900.877 722.217 905.994 C 694.256 919.344, 666.992 937.022, 652.786 951.014 C 637.442 966.127, 636.458 969.921, 636.584 1013.500 C 636.844 1103.421, 661.848 1297.299, 677.020 1327.039 C 679.416 1331.735, 681.541 1333, 687.037 1333 C 699.192 1333, 736.262 1314.928, 772 1291.579 L 781.500 1285.373 797.395 1229.436 C 806.137 1198.671, 815.081 1167.363, 817.270 1159.863 L 821.249 1146.226 826.791 1145.113 C 829.840 1144.501, 834.388 1144, 836.898 1144 C 841.196 1144, 841.814 1144.367, 847.481 1150.291 C 853.075 1156.138, 866.450 1172.181, 891.944 1203.620 C 938.098 1260.539, 959.838 1282.963, 970.548 1284.701 C 984.978 1287.043, 1023.147 1273.067, 1062.543 1251.015 C 1069.436 1247.157, 1075.296 1244, 1075.566 1244 C 1076.348 1244, 1191 1157.894, 1191 1157.306 C 1191 1157.015, 1176.653 1125.664, 1159.117 1087.638 C 1109.345 979.707, 1108 976.768, 1108 975.932 C 1108 975.075, 1148.362 894.960, 1150.688 891.200 C 1151.578 889.763, 1152.747 889.091, 1153.806 889.409 C 1154.738 889.689, 1160.675 890.595, 1167 891.422 C 1176.646 892.684, 1225.348 899.274, 1289.859 908.047 C 1297.756 909.121, 1305.208 910, 1306.419 910 C 1308.620 910, 1308.621 909.987, 1310.416 870.750 C 1311.403 849.163, 1312.989 814.850, 1313.939 794.500 C 1315.516 760.743, 1315.528 757.360, 1314.084 755.906 C 1313.213 755.029, 1298.100 745.641, 1280.500 735.042 C 1262.900 724.444, 1242.425 712.072, 1235 707.548 C 1227.575 703.024, 1208.675 691.553, 1193 682.057 C 1177.325 672.560, 1164.350 664.651, 1164.167 664.479 C 1163.866 664.197, 1158.602 645.333, 1139.975 577.781 L 1133.711 555.063 1137.561 550.781 C 1139.678 548.427, 1159.206 526.971, 1180.955 503.102 C 1202.705 479.234, 1221.729 458.246, 1223.232 456.463 L 1225.964 453.221 1208.732 427.115 C 1199.254 412.758, 1178.900 381.842, 1163.500 358.415 C 1148.100 334.987, 1134.825 314.985, 1134 313.966 C 1132.548 312.172, 1132.033 312.219, 1118 315.442 C 1110.025 317.273, 1079.334 324.249, 1049.797 330.945 L 996.093 343.118 949.777 303.164 L 903.460 263.210 894.118 178.855 C 888.979 132.460, 884.676 94.388, 884.554 94.250 C 883.951 93.567, 732.933 23, 732.074 23 C 731.168 23, 712.640 42.564, 690.402 67 C 653.781 107.242, 644.946 118.087, 639.606 129.352 C 636.513 135.877, 631.474 151.539, 629.264 161.500 C 628.586 164.553, 627.928 165.459, 626.483 165.327 C 625.442 165.232, 613.416 164.830, 599.760 164.434 L 574.930 163.713 554.218 140.607 C 542.827 127.898, 521.355 103.979, 506.503 87.454 C 491.651 70.929, 468.101 44.717, 454.170 29.204 C 440.238 13.692, 428.313 1.021, 427.670 1.047 C 427.026 1.073, 394.941 13.685, 356.370 29.075 M 360.250 34.134 C 324.363 48.455, 295 60.622, 295 61.174 C 295 61.725, 296.395 65.174, 298.101 68.838 C 299.806 72.502, 305.027 83.825, 309.702 94 C 314.378 104.175, 320.813 118.125, 324.004 125 C 327.194 131.875, 332.936 144.250, 336.764 152.500 C 340.592 160.750, 352.382 186.308, 362.964 209.296 L 382.204 251.093 379.721 254.796 C 377.603 257.957, 338.225 312.314, 321.804 334.746 C 318.887 338.731, 315.969 341.993, 315.321 341.996 C 314.672 341.998, 301.622 339.545, 286.321 336.545 C 271.019 333.545, 245.450 328.572, 229.500 325.494 C 166.338 313.303, 137.844 307.790, 123.350 304.959 C 115.017 303.332, 107.367 302.006, 106.350 302.013 C 104.677 302.025, 103.214 309.759, 91.078 382.763 C 83.696 427.168, 77.488 463.989, 77.283 464.587 C 76.979 465.477, 99.637 478.127, 160.500 511.048 C 163.250 512.535, 185.525 524.681, 210 538.038 C 234.475 551.395, 260.350 565.454, 267.500 569.280 C 274.650 573.107, 281.071 576.771, 281.769 577.424 C 282.467 578.076, 287.554 595.910, 293.074 617.055 C 304.292 660.023, 310.189 682.549, 315.030 700.911 L 318.301 713.322 313.401 717.842 C 304.765 725.807, 298.870 731.197, 281.500 747.011 C 272.150 755.524, 264.007 762.941, 263.405 763.494 C 262.802 764.047, 257.852 768.547, 252.405 773.494 C 246.957 778.440, 239.575 785.217, 236 788.553 C 232.425 791.890, 218.925 804.225, 206 815.965 C 193.075 827.704, 181.446 838.304, 180.159 839.519 L 177.817 841.728 191.961 862.614 C 199.740 874.101, 211.327 891.150, 217.710 900.500 C 244.965 940.424, 254.868 954.973, 271.991 980.250 L 290.113 1007 342.612 1007 L 395.112 1007 430.306 1032.649 C 449.663 1046.755, 467.716 1059.986, 470.425 1062.049 C 475.513 1065.926, 476.982 1068.114, 521.737 1138.500 C 529.781 1151.150, 538.683 1165.100, 541.520 1169.500 C 555.140 1190.626, 581.710 1232.112, 590.514 1246 C 609.309 1275.648, 612.943 1280.969, 611.514 1276.750 C 611.281 1276.063, 608.165 1261.325, 604.589 1244 C 601.012 1226.675, 595.572 1200.575, 592.499 1186 C 589.426 1171.425, 585.607 1153.200, 584.011 1145.500 C 582.415 1137.800, 579.715 1124.975, 578.009 1117 C 576.304 1109.025, 572.477 1090.800, 569.503 1076.500 C 556.589 1014.385, 526.001 868.241, 520.003 840 C 517.842 829.825, 512.893 806.200, 509.006 787.500 C 505.118 768.800, 501.062 749.450, 499.993 744.500 C 498.923 739.550, 494.873 720.200, 490.993 701.500 C 487.112 682.800, 483.065 663.450, 481.999 658.500 C 470.929 607.116, 468.902 595.026, 467.010 569.110 C 465.398 547.011, 468.200 515.280, 473.928 490.784 C 480.322 463.440, 492.212 437.610, 508.737 415.168 C 531.682 384.005, 571.725 356.858, 613 344.482 C 640.972 336.094, 682.435 335.185, 720.500 342.123 C 763.601 349.980, 806.153 367.969, 848.032 396.039 C 893.846 426.747, 939.491 476.483, 968.221 527 C 996.527 576.769, 1013.077 626.378, 1018.075 676.437 C 1020.304 698.761, 1018.490 734.416, 1013.992 756.699 C 1004.672 802.869, 978.153 847.974, 943 877.445 C 927.600 890.356, 907.261 901.512, 885.500 908.982 C 862.934 916.729, 842.370 920, 816.239 920 C 796.068 920, 778.742 918.044, 757.666 913.388 C 748.957 911.464, 741.518 910.027, 741.134 910.195 C 740.564 910.444, 749.292 993.391, 756.423 1055.500 C 758.247 1071.388, 767.558 1156.166, 774.599 1221 C 777.197 1244.925, 779.610 1264.837, 779.961 1265.249 C 780.311 1265.661, 790.430 1231.461, 802.446 1189.249 C 814.462 1147.037, 824.904 1110.414, 825.651 1107.865 L 827.009 1103.229 832.755 1102.542 C 838.603 1101.842, 846.593 1100.747, 906.201 1092.471 L 939.902 1087.792 942.201 1090.269 C 943.466 1091.632, 949.255 1097.866, 955.066 1104.123 C 960.878 1110.381, 968.951 1119.100, 973.006 1123.500 C 1043.101 1199.559, 1076.392 1235.058, 1077.390 1234.807 C 1079.614 1234.249, 1182.910 1156.524, 1182.956 1155.375 C 1182.980 1154.756, 1178.672 1144.856, 1173.383 1133.375 C 1168.093 1121.894, 1158.481 1101.025, 1152.022 1087 C 1145.563 1072.975, 1131.411 1042.258, 1120.572 1018.739 C 1101.659 977.703, 1100.921 975.867, 1102.264 973.239 C 1103.034 971.733, 1113.435 951.016, 1125.377 927.201 C 1137.319 903.387, 1147.752 883.649, 1148.561 883.338 C 1149.371 883.027, 1160.488 884.226, 1173.267 886.001 C 1186.045 887.777, 1199.425 889.594, 1203 890.039 C 1217.813 891.886, 1298.665 903.013, 1300.623 903.474 C 1302.694 903.962, 1302.761 903.605, 1303.409 888.737 C 1303.774 880.357, 1304.501 864.275, 1305.025 853 C 1307.030 809.782, 1307.969 788.977, 1308.568 774.500 L 1309.187 759.500 1292.344 749.396 C 1283.080 743.840, 1266.950 734.115, 1256.500 727.786 C 1246.050 721.457, 1222.650 707.287, 1204.500 696.297 C 1186.350 685.308, 1168.620 674.548, 1165.100 672.386 L 1158.701 668.455 1155.479 656.977 C 1150.479 639.166, 1135.596 585.206, 1130.972 568.127 L 1126.811 552.755 1132.155 547.158 C 1135.095 544.080, 1137.726 541.322, 1138.002 541.031 C 1138.278 540.739, 1145.243 533.075, 1153.480 524 C 1161.716 514.925, 1168.708 507.275, 1169.016 507 C 1169.325 506.725, 1180.500 494.463, 1193.849 479.751 C 1209.803 462.169, 1217.858 452.574, 1217.356 451.751 C 1216.936 451.063, 1210.228 440.825, 1202.450 429 C 1194.671 417.175, 1175.599 388.150, 1160.067 364.500 C 1144.535 340.850, 1131.292 320.942, 1130.638 320.260 C 1129.693 319.274, 1128.224 319.322, 1123.474 320.492 C 1120.188 321.301, 1102.425 325.357, 1084 329.505 C 1021.568 343.562, 1005.513 347.206, 1000.033 348.566 L 994.567 349.923 989.033 345.169 C 907.203 274.866, 897 265.751, 897 262.947 C 897 259.231, 879.108 98.775, 878.642 98.309 C 878.302 97.969, 845.974 82.760, 770.801 47.573 C 752.267 38.897, 736.583 31.972, 735.948 32.184 C 735.313 32.396, 732.377 39.303, 729.423 47.534 C 726.469 55.765, 715.077 87.475, 704.107 118 L 684.161 173.500 677.830 173.491 C 674.349 173.487, 649.084 172.603, 621.688 171.528 L 571.876 169.574 560.690 157.037 C 546.319 140.930, 545.169 139.650, 527.400 120 C 519.194 110.925, 506.884 97.200, 500.045 89.500 C 493.205 81.800, 485.335 73.022, 482.555 69.994 C 479.775 66.966, 474.125 60.687, 470 56.042 C 449.043 32.441, 426.713 8.006, 426.143 8.049 C 425.789 8.076, 396.137 19.814, 360.250 34.134 M 704 517.940 C 694.611 519.929, 684.676 524.081, 677.313 529.095 C 674.666 530.897, 659.450 544.144, 643.500 558.532 C 574.175 621.070, 577.146 618.089, 570.456 631.797 C 564.181 644.653, 562.652 652.254, 562.571 671 C 562.516 683.752, 562.923 689.317, 564.361 695.500 C 567.755 710.092, 572.235 721.659, 579.853 735.493 C 597.417 767.392, 629.724 793.282, 661.883 801.230 C 672.955 803.967, 692.440 804.192, 701.599 801.690 C 715.669 797.846, 714.373 798.665, 767.500 760.025 C 788.950 744.424, 810.827 728.596, 816.115 724.852 C 833.280 712.698, 842.376 700.817, 848.069 683.114 C 867.699 622.073, 820.216 541.951, 752 521.008 C 734.899 515.758, 719.083 514.747, 704 517.940 M 706.467 523.401 C 698.684 525.003, 690.209 527.945, 686.846 530.211 C 685.386 531.195, 683.698 532, 683.096 532 C 682.493 532, 682 532.353, 682 532.784 C 682 533.216, 680.675 534.352, 679.055 535.309 C 669.765 540.796, 659.208 555.450, 654.611 569.239 C 644.038 600.951, 652.289 639.664, 676.985 674.223 C 681.194 680.112, 704.082 704, 705.516 704 C 706.112 704, 714.804 709.804, 716 711 C 717.162 712.162, 729.426 718.460, 737.286 721.931 C 746.486 725.993, 765.513 729.950, 776 729.982 C 786.340 730.013, 801.107 726.119, 811.272 720.682 C 816.485 717.893, 832 704.344, 832 702.581 C 832 702.185, 833.268 699.979, 834.817 697.680 C 838.415 692.340, 840.678 687.415, 843.341 679.124 C 845.202 673.335, 845.467 670.169, 845.448 654 C 845.425 634.722, 844.663 629.400, 839.957 615.662 C 831.954 592.300, 814.688 567.267, 796.034 551.980 C 793.028 549.516, 789.680 546.712, 788.595 545.750 C 787.511 544.788, 786.239 544, 785.770 544 C 785.300 544, 783.928 543.079, 782.720 541.954 C 780.733 540.102, 763.150 531.033, 757 528.686 C 755.625 528.162, 753.600 527.377, 752.500 526.942 C 751.400 526.507, 749.150 525.868, 747.500 525.522 C 745.850 525.176, 742.475 524.422, 740 523.846 C 733.141 522.252, 713.327 521.989, 706.467 523.401" stroke="none" fill="#000000" fill-rule="evenodd"/><path d="M 706.467 523.401 C 698.684 525.003, 690.209 527.945, 686.846 530.211 C 685.386 531.195, 683.698 532, 683.096 532 C 682.493 532, 682 532.353, 682 532.784 C 682 533.216, 680.675 534.352, 679.055 535.309 C 669.765 540.796, 659.208 555.450, 654.611 569.239 C 644.038 600.951, 652.289 639.664, 676.985 674.223 C 681.194 680.112, 704.082 704, 705.516 704 C 706.112 704, 714.804 709.804, 716 711 C 717.162 712.162, 729.426 718.460, 737.286 721.931 C 746.486 725.993, 765.513 729.950, 776 729.982 C 786.340 730.013, 801.107 726.119, 811.272 720.682 C 816.485 717.893, 832 704.344, 832 702.581 C 832 702.185, 833.268 699.979, 834.817 697.680 C 838.415 692.340, 840.678 687.415, 843.341 679.124 C 845.202 673.335, 845.467 670.169, 845.448 654 C 845.425 634.722, 844.663 629.400, 839.957 615.662 C 831.954 592.300, 814.688 567.267, 796.034 551.980 C 793.028 549.516, 789.680 546.712, 788.595 545.750 C 787.511 544.788, 786.239 544, 785.770 544 C 785.300 544, 783.928 543.079, 782.720 541.954 C 780.733 540.102, 763.150 531.033, 757 528.686 C 755.625 528.162, 753.600 527.377, 752.500 526.942 C 751.400 526.507, 749.150 525.868, 747.500 525.522 C 745.850 525.176, 742.475 524.422, 740 523.846 C 733.141 522.252, 713.327 521.989, 706.467 523.401" stroke="none" fill="#b22222" fill-rule="evenodd"/><path d="M 360.250 34.134 C 324.363 48.455, 295 60.622, 295 61.174 C 295 61.725, 296.395 65.174, 298.101 68.838 C 299.806 72.502, 305.027 83.825, 309.702 94 C 314.378 104.175, 320.813 118.125, 324.004 125 C 327.194 131.875, 332.936 144.250, 336.764 152.500 C 340.592 160.750, 352.382 186.308, 362.964 209.296 L 382.204 251.093 379.721 254.796 C 377.603 257.957, 338.225 312.314, 321.804 334.746 C 318.887 338.731, 315.969 341.993, 315.321 341.996 C 314.672 341.998, 301.622 339.545, 286.321 336.545 C 271.019 333.545, 245.450 328.572, 229.500 325.494 C 166.338 313.303, 137.844 307.790, 123.350 304.959 C 115.017 303.332, 107.367 302.006, 106.350 302.013 C 104.677 302.025, 103.214 309.759, 91.078 382.763 C 83.696 427.168, 77.488 463.989, 77.283 464.587 C 76.979 465.477, 99.637 478.127, 160.500 511.048 C 163.250 512.535, 185.525 524.681, 210 538.038 C 234.475 551.395, 260.350 565.454, 267.500 569.280 C 274.650 573.107, 281.071 576.771, 281.769 577.424 C 282.467 578.076, 287.554 595.910, 293.074 617.055 C 304.292 660.023, 310.189 682.549, 315.030 700.911 L 318.301 713.322 313.401 717.842 C 304.765 725.807, 298.870 731.197, 281.500 747.011 C 272.150 755.524, 264.007 762.941, 263.405 763.494 C 262.802 764.047, 257.852 768.547, 252.405 773.494 C 246.957 778.440, 239.575 785.217, 236 788.553 C 232.425 791.890, 218.925 804.225, 206 815.965 C 193.075 827.704, 181.446 838.304, 180.159 839.519 L 177.817 841.728 191.961 862.614 C 199.740 874.101, 211.327 891.150, 217.710 900.500 C 244.965 940.424, 254.868 954.973, 271.991 980.250 L 290.113 1007 342.612 1007 L 395.112 1007 430.306 1032.649 C 449.663 1046.755, 467.716 1059.986, 470.425 1062.049 C 475.513 1065.926, 476.982 1068.114, 521.737 1138.500 C 529.781 1151.150, 538.683 1165.100, 541.520 1169.500 C 555.140 1190.626, 581.710 1232.112, 590.514 1246 C 609.309 1275.648, 612.943 1280.969, 611.514 1276.750 C 611.281 1276.063, 608.165 1261.325, 604.589 1244 C 601.012 1226.675, 595.572 1200.575, 592.499 1186 C 589.426 1171.425, 585.607 1153.200, 584.011 1145.500 C 582.415 1137.800, 579.715 1124.975, 578.009 1117 C 576.304 1109.025, 572.477 1090.800, 569.503 1076.500 C 556.589 1014.385, 526.001 868.241, 520.003 840 C 517.842 829.825, 512.893 806.200, 509.006 787.500 C 505.118 768.800, 501.062 749.450, 499.993 744.500 C 498.923 739.550, 494.873 720.200, 490.993 701.500 C 487.112 682.800, 483.065 663.450, 481.999 658.500 C 470.929 607.116, 468.902 595.026, 467.010 569.110 C 465.398 547.011, 468.200 515.280, 473.928 490.784 C 480.322 463.440, 492.212 437.610, 508.737 415.168 C 531.682 384.005, 571.725 356.858, 613 344.482 C 640.972 336.094, 682.435 335.185, 720.500 342.123 C 763.601 349.980, 806.153 367.969, 848.032 396.039 C 893.846 426.747, 939.491 476.483, 968.221 527 C 996.527 576.769, 1013.077 626.378, 1018.075 676.437 C 1020.304 698.761, 1018.490 734.416, 1013.992 756.699 C 1004.672 802.869, 978.153 847.974, 943 877.445 C 927.600 890.356, 907.261 901.512, 885.500 908.982 C 862.934 916.729, 842.370 920, 816.239 920 C 796.068 920, 778.742 918.044, 757.666 913.388 C 748.957 911.464, 741.518 910.027, 741.134 910.195 C 740.564 910.444, 749.292 993.391, 756.423 1055.500 C 758.247 1071.388, 767.558 1156.166, 774.599 1221 C 777.197 1244.925, 779.610 1264.837, 779.961 1265.249 C 780.311 1265.661, 790.430 1231.461, 802.446 1189.249 C 814.462 1147.037, 824.904 1110.414, 825.651 1107.865 L 827.009 1103.229 832.755 1102.542 C 838.603 1101.842, 846.593 1100.747, 906.201 1092.471 L 939.902 1087.792 942.201 1090.269 C 943.466 1091.632, 949.255 1097.866, 955.066 1104.123 C 960.878 1110.381, 968.951 1119.100, 973.006 1123.500 C 1043.101 1199.559, 1076.392 1235.058, 1077.390 1234.807 C 1079.614 1234.249, 1182.910 1156.524, 1182.956 1155.375 C 1182.980 1154.756, 1178.672 1144.856, 1173.383 1133.375 C 1168.093 1121.894, 1158.481 1101.025, 1152.022 1087 C 1145.563 1072.975, 1131.411 1042.258, 1120.572 1018.739 C 1101.659 977.703, 1100.921 975.867, 1102.264 973.239 C 1103.034 971.733, 1113.435 951.016, 1125.377 927.201 C 1137.319 903.387, 1147.752 883.649, 1148.561 883.338 C 1149.371 883.027, 1160.488 884.226, 1173.267 886.001 C 1186.045 887.777, 1199.425 889.594, 1203 890.039 C 1217.813 891.886, 1298.665 903.013, 1300.623 903.474 C 1302.694 903.962, 1302.761 903.605, 1303.409 888.737 C 1303.774 880.357, 1304.501 864.275, 1305.025 853 C 1307.030 809.782, 1307.969 788.977, 1308.568 774.500 L 1309.187 759.500 1292.344 749.396 C 1283.080 743.840, 1266.950 734.115, 1256.500 727.786 C 1246.050 721.457, 1222.650 707.287, 1204.500 696.297 C 1186.350 685.308, 1168.620 674.548, 1165.100 672.386 L 1158.701 668.455 1155.479 656.977 C 1150.479 639.166, 1135.596 585.206, 1130.972 568.127 L 1126.811 552.755 1132.155 547.158 C 1135.095 544.080, 1137.726 541.322, 1138.002 541.031 C 1138.278 540.739, 1145.243 533.075, 1153.480 524 C 1161.716 514.925, 1168.708 507.275, 1169.016 507 C 1169.325 506.725, 1180.500 494.463, 1193.849 479.751 C 1209.803 462.169, 1217.858 452.574, 1217.356 451.751 C 1216.936 451.063, 1210.228 440.825, 1202.450 429 C 1194.671 417.175, 1175.599 388.150, 1160.067 364.500 C 1144.535 340.850, 1131.292 320.942, 1130.638 320.260 C 1129.693 319.274, 1128.224 319.322, 1123.474 320.492 C 1120.188 321.301, 1102.425 325.357, 1084 329.505 C 1021.568 343.562, 1005.513 347.206, 1000.033 348.566 L 994.567 349.923 989.033 345.169 C 907.203 274.866, 897 265.751, 897 262.947 C 897 259.231, 879.108 98.775, 878.642 98.309 C 878.302 97.969, 845.974 82.760, 770.801 47.573 C 752.267 38.897, 736.583 31.972, 735.948 32.184 C 735.313 32.396, 732.377 39.303, 729.423 47.534 C 726.469 55.765, 715.077 87.475, 704.107 118 L 684.161 173.500 677.830 173.491 C 674.349 173.487, 649.084 172.603, 621.688 171.528 L 571.876 169.574 560.690 157.037 C 546.319 140.930, 545.169 139.650, 527.400 120 C 519.194 110.925, 506.884 97.200, 500.045 89.500 C 493.205 81.800, 485.335 73.022, 482.555 69.994 C 479.775 66.966, 474.125 60.687, 470 56.042 C 449.043 32.441, 426.713 8.006, 426.143 8.049 C 425.789 8.076, 396.137 19.814, 360.250 34.134 M 571.453 159.750 L 575.406 164 583.953 163.796 L 592.500 163.593 584 163.253 C 575.777 162.924, 575.370 162.793, 571.500 159.207 L 567.500 155.500 571.453 159.750 M 581.797 427.745 C 586.361 427.930, 593.561 427.929, 597.797 427.742 C 602.034 427.555, 598.300 427.404, 589.500 427.405 C 580.700 427.406, 577.234 427.559, 581.797 427.745 M 1112.947 965.105 C 1110.158 970.663, 1108.036 975.369, 1108.231 975.564 C 1108.425 975.759, 1110.926 971.212, 1113.786 965.459 C 1116.647 959.707, 1118.770 955, 1118.503 955 C 1118.236 955, 1115.736 959.547, 1112.947 965.105 M 201.500 1055 C 213.591 1067.100, 223.708 1077, 223.983 1077 C 224.258 1077, 214.591 1067.100, 202.500 1055 C 190.409 1042.900, 180.292 1033, 180.017 1033 C 179.742 1033, 189.409 1042.900, 201.500 1055" stroke="none" fill="#4682b4" fill-rule="evenodd"/></svg>